<svg xmlns="http://www.w3.org/2000/svg" width="290.655" height="239" viewBox="0 0 290.655 239">
  <g id="link_1_" data-name="link(1)" transform="translate(0.001 -42.421)" opacity="0.01">
    <g id="Group_2" data-name="Group 2" transform="translate(111.33 42.421)">
      <g id="Group_1" data-name="Group 1">
        <path id="Path_3" data-name="Path 3" d="M346.24,58.388a54.469,54.469,0,0,0-38.547-15.968h0a54.179,54.179,0,0,0-38.519,15.95l-70.367,70.368a54.562,54.562,0,0,0-13.924,53.285,10.391,10.391,0,1,0,20-5.642,33.78,33.78,0,0,1,8.614-32.949l70.367-70.357a33.692,33.692,0,0,1,47.653,47.642l-70.367,70.367a33.583,33.583,0,0,1-16.854,9.134,10.391,10.391,0,0,0,2.15,20.564,10.282,10.282,0,0,0,2.162-.228,54.313,54.313,0,0,0,27.235-14.776l70.367-70.357A54.47,54.47,0,0,0,346.24,58.388Z" transform="translate(-182.855 -42.421)" fill="#fff"/>
      </g>
    </g>
    <g id="Group_4" data-name="Group 4" transform="translate(-0.001 103.324)">
      <g id="Group_3" data-name="Group 3" transform="translate(0 0)">
        <path id="Path_4" data-name="Path 4" d="M176.991,181.229a10.391,10.391,0,0,0-20,5.642,33.779,33.779,0,0,1-8.614,32.949L78.008,290.188a33.692,33.692,0,0,1-47.653-47.643l70.368-70.378a33.535,33.535,0,0,1,16.833-9.134,10.391,10.391,0,0,0-4.076-20.378l-.205.043A54.4,54.4,0,0,0,86.03,157.475L15.662,227.843A54.479,54.479,0,0,0,92.7,304.891l70.367-70.378A54.559,54.559,0,0,0,176.991,181.229Z" transform="translate(0.001 -142.452)" fill="#fff"/>
      </g>
    </g>
  </g>
</svg>
